PathFileType	4	(X/Y/Z)	c:/Users/goper/Files/vsCode/490R/osim_files/A05/A05_Slow_01.trc
DataRate	CameraRate	NumFrames	NumMarkers	Units                	OrigDataRate	OrigDataStartFrame	OrigNumFrames
250.00	250.00	11	36	mm	250.0	1380	3678
                Frame#	Time	LPSIS			LASIS			LTH1			LTH2			LTH3			LTH4			LLFE			LMFE			LSH1			LSH2			LSH3			LSH4			LLMAL			LMMAL			LCAL			LMTP5			LTOE			LMTP1			RPSIS			RASIS			RTH1			RTH2			RTH3			RTH4			RLFE			RMFE			RSH1			RSH2			RSH3			RSH4			RLMAL			RMMAL			RCAL			RMTP1			RTOE			RMTP5		
		X1	Y1	Z1	X2	Y2	Z2	X3	Y3	Z3	X4	Y4	Z4	X5	Y5	Z5	X6	Y6	Z6	X7	Y7	Z7	X8	Y8	Z8	X9	Y9	Z9	X10	Y10	Z10	X11	Y11	Z11	X12	Y12	Z12	X13	Y13	Z13	X14	Y14	Z14	X15	Y15	Z15	X16	Y16	Z16	X17	Y17	Z17	X18	Y18	Z18	X19	Y19	Z19	X20	Y20	Z20	X21	Y21	Z21	X22	Y22	Z22	X23	Y23	Z23	X24	Y24	Z24	X25	Y25	Z25	X26	Y26	Z26	X27	Y27	Z27	X28	Y28	Z28	X29	Y29	Z29	X30	Y30	Z30	X31	Y31	Z31	X32	Y32	Z32	X33	Y33	Z33	X34	Y34	Z34	X35	Y35	Z35	X36	Y36	Z36

1380	5.51600	1507.76941	1013.16370	350.09787	1310.18945	955.58881	449.27017	1450.61438	680.28119	482.31436	1438.22034	640.85071	483.32614	0.00000	0.00000	0.00000	1387.67029	648.93811	498.13394	1368.45251	471.76355	468.54968	1369.55457	475.07156	369.52997	1342.90405	368.24551	463.49023	0.00000	0.00000	0.00000	1406.83228	377.95993	476.13531	1406.92090	331.66229	479.08163	1382.95959	110.39294	464.49838	1387.83423	115.49564	377.07361	1466.59265	60.98104	415.81888	1251.84827	47.89023	488.35449	1204.74170	73.82187	427.30496	1246.67908	65.48775	379.29175	1504.55725	1017.52576	268.95279	0.00000	0.00000	0.00000	1304.38074	624.02710	62.30012	1291.11133	584.20416	66.58924	1247.64124	638.20050	82.51034	1243.40295	590.55066	87.01489	0.00000	0.00000	0.00000	1318.04736	544.47461	72.20830	1510.72388	386.53314	81.52105	1544.20520	352.68179	92.27408	0.00000	0.00000	0.00000	0.00000	0.00000	0.00000	1621.99585	273.84985	113.69204	1560.51062	254.73718	193.69965	1681.75330	279.59573	197.17184	0.00000	0.00000	0.00000	1464.47192	366.50806	50.55500	0.00000	0.00000	0.00000
1381	5.52000	1504.53223	1013.58069	350.79538	1307.04993	955.81274	449.83026	1448.66064	680.75586	482.73798	1436.48840	641.22479	483.66031	1388.06213	691.32404	501.38419	1385.90063	649.09003	498.50195	1368.53503	471.33319	469.74658	1368.60608	475.16989	369.81296	1342.23669	368.30914	463.74930	0.00000	0.00000	0.00000	1406.12622	378.12390	476.31088	1406.25378	331.77084	479.26114	1384.29285	110.75686	465.33203	1387.74609	115.53300	377.08566	1467.12573	61.22870	415.79114	1251.82605	47.85646	488.35654	1204.66553	73.76706	427.27359	1246.64294	65.49368	379.28748	1501.37524	1017.89789	269.61975	0.00000	0.00000	0.00000	1298.14514	625.40796	62.84854	1284.64343	585.66486	67.03304	1241.63879	639.67126	83.03878	1237.09851	592.05304	87.37872	0.00000	0.00000	0.00000	1311.48511	545.67072	72.43749	1503.20776	386.76294	81.27281	1536.54639	352.85678	91.92532	0.00000	0.00000	0.00000	0.00000	0.00000	0.00000	1613.86926	273.62704	113.15796	1552.49231	254.63516	193.24582	1674.71777	278.58990	196.61658	0.00000	0.00000	0.00000	0.00000	0.00000	0.00000	0.00000	0.00000	0.00000
1382	5.52400	1501.30090	1014.03290	351.47562	0.00000	0.00000	0.00000	1446.71204	681.25598	483.11691	1434.68384	641.59583	484.04321	0.00000	0.00000	0.00000	1383.97900	649.16052	498.86118	1367.47058	471.37012	470.00568	1367.55627	475.30179	370.06177	1341.53662	368.34183	463.96289	0.00000	0.00000	0.00000	1405.31409	378.23489	476.52106	1405.60803	331.93481	479.40115	1384.20581	110.73640	465.37057	1387.67114	115.57887	377.10193	1467.14453	61.31655	415.82910	1251.81042	47.82300	488.34406	1204.62268	73.67154	427.27484	1248.22571	65.08645	380.03677	1498.21350	1018.30835	270.28290	0.00000	0.00000	0.00000	1292.29199	626.49329	63.04038	1278.57654	586.84509	67.12342	1235.73987	641.24799	83.45802	1231.01758	593.62244	87.60890	0.00000	0.00000	0.00000	1304.99561	546.89642	72.72285	1495.64392	386.88293	81.05688	1528.88293	352.77927	91.64156	0.00000	0.00000	0.00000	0.00000	0.00000	0.00000	1605.68335	273.22745	112.64565	1544.27795	254.30643	192.74387	1666.82910	277.20084	196.10130	0.00000	0.00000	0.00000	1465.71887	421.37601	553.46790	0.00000	0.00000	0.00000
1383	5.52800	1498.15137	1014.53143	352.15091	0.00000	0.00000	0.00000	1443.46338	681.51141	482.84079	1432.81628	641.94238	484.38834	1384.02686	691.75500	502.24600	1382.09875	649.29034	499.21109	1366.36560	471.42502	470.25717	1366.51038	475.41785	370.30029	1340.86060	368.52798	464.26447	0.00000	0.00000	0.00000	1404.54041	378.44293	476.68524	1404.89087	332.14740	479.56512	1384.18628	110.81236	465.40112	1387.65576	115.66412	377.11664	1466.53979	61.22169	415.86081	1251.83594	47.84663	488.34399	1204.60547	73.67381	427.27444	1248.21716	65.10642	380.07758	1495.03113	1018.77856	270.96878	0.00000	0.00000	0.00000	1286.23511	627.80481	63.61778	1272.41895	588.08844	67.44263	1229.91907	642.72723	83.86984	1224.86682	595.10181	88.01039	0.00000	0.00000	0.00000	1298.56860	548.12634	72.98758	1488.04126	386.90955	80.76331	1521.03540	352.52811	91.24909	0.00000	0.00000	0.00000	0.00000	0.00000	0.00000	1597.38013	272.55164	112.02135	1536.04309	253.88667	192.31111	1657.89099	275.28500	195.49232	0.00000	0.00000	0.00000	0.00000	0.00000	0.00000	0.00000	0.00000	0.00000
1384	5.53200	1494.90356	1014.99402	352.82681	1297.72815	956.54639	451.58472	1441.44897	681.94330	483.22067	1430.95166	642.28815	484.70825	1381.93652	691.86377	502.52676	1380.22717	649.43207	499.56363	1365.52258	472.24524	470.23495	1365.28186	475.54135	370.52325	1339.83545	368.47723	464.32379	1351.00598	325.10968	468.78677	1403.55750	378.59128	476.89081	1405.46106	333.67825	479.46655	1384.14978	110.87836	465.42755	1387.58972	115.74581	377.13367	1466.50964	61.33959	415.85269	1251.85498	47.81965	488.32208	1204.52209	73.60069	427.23102	1248.15466	65.11065	380.06885	1491.85974	1019.26971	271.60669	0.00000	0.00000	0.00000	1280.62952	628.86053	63.83842	1266.38293	589.35931	67.77179	1224.26343	644.21478	84.25597	1218.93250	596.64124	88.36509	0.00000	0.00000	0.00000	1292.10095	549.20312	73.32797	1480.42603	386.75217	80.43637	1513.08167	352.19440	90.85931	0.00000	0.00000	0.00000	0.00000	0.00000	0.00000	1588.89111	271.57352	111.34084	1527.80603	253.34544	191.86986	1650.89722	273.55890	194.71049	0.00000	0.00000	0.00000	1294.24268	18.30624	413.71802	0.00000	0.00000	0.00000
1385	5.53600	1491.71265	1015.43866	353.47388	1294.53723	956.75397	452.05435	1440.48547	682.39728	484.18652	1428.97644	642.61737	485.01141	1379.82129	692.09534	502.96783	1378.18958	649.55902	499.84995	1363.23047	472.09485	470.30762	1363.89624	475.69415	370.75031	1338.83252	368.56552	464.54416	1350.03345	325.02893	468.85193	1402.49658	378.80234	477.07895	1404.56348	333.91296	479.64380	1384.03418	110.91945	465.44003	1387.50061	115.83172	377.17743	1466.36926	61.38173	415.82098	1251.77551	47.72392	488.32397	1204.41919	73.53593	427.27716	1246.45190	65.53963	379.32031	1488.67725	1019.76532	272.26300	0.00000	0.00000	0.00000	1274.92810	629.94391	64.20994	1260.46313	590.54254	68.14763	1218.66284	645.66663	84.69270	1213.02710	598.07568	88.78023	0.00000	0.00000	0.00000	1285.65625	550.29968	73.72433	1472.68433	386.38556	80.20248	1505.15295	351.69839	90.45930	0.00000	0.00000	0.00000	0.00000	0.00000	0.00000	1580.29810	270.31650	110.63903	1519.26636	252.52954	191.41805	1642.76367	271.22791	193.81213	0.00000	0.00000	0.00000	0.00000	0.00000	0.00000	0.00000	0.00000	0.00000
1386	5.54000	1488.56982	1015.96722	354.10211	1291.27783	956.96820	452.48535	1438.28687	682.74335	484.48291	1426.92407	642.88202	485.33505	1377.58289	692.17957	503.18066	1376.05664	649.63525	500.13681	1361.45630	472.35739	469.93811	1362.44446	475.86139	370.95361	1337.74683	368.60361	464.75864	0.00000	0.00000	0.00000	1401.41614	379.05658	477.19986	1403.53662	334.11969	479.73349	1383.96289	111.03739	465.48297	1387.33167	115.90916	377.16467	1466.33057	61.56806	415.80606	1251.70300	47.67257	488.31079	1204.28101	73.45096	427.23840	1246.34827	65.49355	379.28897	1485.52429	1020.28772	272.89502	0.00000	0.00000	0.00000	1269.31104	631.01031	64.62360	1254.57263	591.67914	68.59291	1213.16321	647.11279	85.07408	1207.26392	599.57831	89.14835	0.00000	0.00000	0.00000	1279.40320	551.39038	74.08727	1464.94043	386.00580	79.94620	1497.09143	351.02036	90.02881	0.00000	0.00000	0.00000	0.00000	0.00000	0.00000	1571.61804	268.87656	109.97398	1510.76758	251.70790	190.97929	1634.55908	268.68176	192.83817	0.00000	0.00000	0.00000	1294.11377	18.46060	413.73993	0.00000	0.00000	0.00000
1387	5.54400	1485.40833	1016.47754	354.71014	1287.93884	957.10675	452.74493	1434.76587	682.96057	484.10941	1424.89014	643.23578	485.59406	1375.27441	692.27161	503.49792	1374.05078	649.85681	500.42627	1361.22327	472.54440	470.87509	1360.94751	475.97052	371.19345	1336.48828	368.54443	464.78354	0.00000	0.00000	0.00000	1400.25391	379.28406	477.34784	1402.52954	334.36383	479.87259	1382.40442	110.87708	464.66827	1387.22449	116.01524	377.15884	1466.29346	61.79086	415.80978	1251.94958	46.96390	488.75037	1204.16125	73.36981	427.26932	1246.23694	65.46961	379.31119	1482.40625	1020.79907	273.46188	0.00000	0.00000	0.00000	1263.83862	632.06683	65.02360	1248.88440	592.85803	68.99387	1207.75488	648.49774	85.49509	1201.46814	600.96997	89.63420	0.00000	0.00000	0.00000	1273.17798	552.38513	74.50056	1457.09021	385.44638	79.60720	1488.98962	350.13943	89.68568	1448.79773	356.54135	32.98389	0.00000	0.00000	0.00000	1562.77942	267.15610	109.25973	1502.09460	250.64209	190.53244	1626.25476	265.86966	191.79623	0.00000	0.00000	0.00000	0.00000	0.00000	0.00000	0.00000	0.00000	0.00000
1388	5.54800	1482.27991	1016.95685	355.30643	1284.52222	957.15045	452.98203	1433.86096	683.54736	485.11469	1422.72339	643.53778	485.86746	1373.09070	692.55316	503.88239	1370.24902	649.58875	500.02548	1359.32874	471.98050	471.33420	1359.34717	476.13449	371.41080	1335.37805	368.62790	465.02780	0.00000	0.00000	0.00000	1399.02600	379.48041	477.51889	1401.41345	334.57263	480.01596	1382.25598	110.95084	464.70947	1385.60803	115.23492	376.89432	1466.18152	61.91897	415.79099	1251.88855	46.90925	488.76169	1205.17236	72.75294	428.37265	1247.78528	65.01488	380.10510	1479.27246	1021.32306	274.00928	0.00000	0.00000	0.00000	1258.54578	632.93744	65.11408	1243.10339	593.89130	69.47520	1202.36206	649.81128	85.92653	1195.82324	602.39984	90.08056	0.00000	0.00000	0.00000	1266.92126	553.38483	74.93792	1449.20667	384.61331	79.30786	0.00000	0.00000	0.00000	0.00000	0.00000	0.00000	0.00000	0.00000	0.00000	1553.72095	265.20422	108.49976	1493.16907	249.40874	190.08876	1616.67139	262.34317	190.64798	0.00000	0.00000	0.00000	1438.16138	132.12238	83.00901	0.00000	0.00000	0.00000
1389	5.55200	1479.15417	1017.43530	355.83008	1280.82617	957.08722	452.93845	1431.56128	683.92688	485.38724	1420.54846	643.85071	486.13397	0.00000	0.00000	0.00000	1368.12927	649.75385	500.28247	1358.14954	472.78464	471.26508	1357.77026	476.26657	371.58743	1334.24683	368.72556	465.23965	0.00000	0.00000	0.00000	1397.80188	379.71649	477.68094	1400.37244	334.81348	480.11316	1382.17590	111.08022	464.75925	1386.46960	115.86625	377.02072	1466.13867	62.13135	415.78604	1253.80359	48.76860	489.14923	1205.07922	72.71126	428.39529	1247.69019	64.99716	380.09357	1476.20972	1021.85760	274.52951	0.00000	0.00000	0.00000	1253.33521	634.01190	65.55115	1237.47034	594.96503	69.97578	1197.04785	651.16840	86.38280	1190.25781	603.78491	90.55339	0.00000	0.00000	0.00000	1260.89111	554.36334	75.35423	1441.25708	383.79193	78.94256	0.00000	0.00000	0.00000	0.00000	0.00000	0.00000	0.00000	0.00000	0.00000	1544.53345	263.03983	107.71618	1484.30591	248.10785	189.67499	1609.12939	259.51303	189.48288	0.00000	0.00000	0.00000	0.00000	0.00000	0.00000	0.00000	0.00000	0.00000
1390	5.55600	1476.00525	1017.84589	356.36594	0.00000	0.00000	0.00000	1428.00024	684.13757	485.04477	1418.42505	644.20007	486.38757	0.00000	0.00000	0.00000	1365.94958	649.86115	500.55460	1355.38684	472.80011	470.77927	1356.68384	476.34680	371.52634	0.00000	0.00000	0.00000	1342.69128	324.91653	467.85339	1396.60583	379.97873	477.80521	1399.31128	335.06119	480.23132	1383.25684	111.26012	465.57108	1385.30652	115.40968	376.89603	1466.05823	62.30297	415.79288	1251.82129	46.82464	488.78012	1204.93396	72.54639	428.39828	1247.58716	64.92336	380.07947	1473.05750	1022.28143	275.03735	0.00000	0.00000	0.00000	1247.72644	634.86804	66.36920	1231.95496	596.01666	70.48651	1191.92590	652.56921	86.68745	1184.72925	605.21893	91.05325	0.00000	0.00000	0.00000	1254.77576	555.04053	75.57034	1433.29004	382.74814	78.65340	1463.99304	346.78113	88.38235	0.00000	0.00000	0.00000	0.00000	0.00000	0.00000	1535.17249	260.65530	106.94371	1475.33423	246.64673	189.24762	1600.32422	255.99226	188.28638	0.00000	0.00000	0.00000	1399.85059	212.59088	240.16678	0.00000	0.00000	0.00000
